{"title":"Rope [1948] 720p BRRip H264 AC3 - CODY","uid":7974393,"size":1217445042,"categoryP":"video","categoryS":"hd___movies","magnet":"?xt=urn:btih:97088eaa1884dd8e2c416a706732e35efd301b41&amp;dn=Rope+%5B1948%5D+720p+BRRip+H264+AC3+-+CODY&amp;tr=udp%3A%2F%2Ftracker.openbittorrent.com%3A80&amp;tr=udp%3A%2F%2Fopen.demonii.com%3A1337&amp;tr=udp%3A%2F%2Ftracker.coppersurfer.tk%3A6969&amp;tr=udp%3A%2F%2Fexodus.desync.com%3A6969","seeders":6,"leechers":0,"uploader":"CODYBOSS1969","files":5,"time":1356948672,"description":"General\nComplete name                            : Rope [1948] 720p BRRip H264 AC3 - CODY.mp4\nFormat                                   : MPEG-4\nFormat profile                           : Base Media\nCodec ID                                 : isom\nFile size                                : 1.13 GiB\nDuration                                 : 1h 20mn\nOverall bit rate mode                    : Variable\nOverall bit rate                         : 2 008 Kbps\nEncoded date                             : UTC 2012-12-09 20:10:55\n\nVideo\nID                                       : 1\nFormat                                   : AVC\nFormat/Info                              : Advanced Video Codec\nFormat profile                           : &lt;a class=&quot;__cf_email__&quot; href=&quot;/cdn-cgi/l/email-protection&quot; data-cfemail=&quot;135b7a747b535f273d22&quot;&gt;[email&amp;#160;protected]&lt;/a&gt;&lt;script cf-hash='f9e31' type=&quot;text/javascript&quot;&gt;\n/* &lt;![CDATA[ */!function(){try{var t=&quot;currentScript&quot;in document?document.currentScript:function(){for(var t=document.getElementsByTagName(&quot;script&quot;),e=t.length;e--;)if(t[e].getAttribute(&quot;cf-hash&quot;))return t[e]}();if(t&amp;&amp;t.previousSibling){var e,r,n,i,c=t.previousSibling,a=c.getAttribute(&quot;data-cfemail&quot;);if(a){for(e=&quot;&quot;,r=parseInt(a.substr(0,2),16),n=2;a.length-n;n+=2)i=parseInt(a.substr(n,2),16)^r,e+=String.fromCharCode(i);e=document.createTextNode(e),c.parentNode.replaceChild(e,c)}}}catch(u){}}();/* ]]&gt; */&lt;/script&gt;\nFormat settings, CABAC                   : Yes\nFormat settings, ReFrames                : 5 frames\nCodec ID                                 : avc1\nCodec ID/Info                            : Advanced Video Coding\nDuration                                 : 1h 20mn\nBit rate mode                            : Variable\nBit rate                                 : 1 685 Kbps\nMaximum bit rate                         : 20.0 Mbps\nWidth                                    : 976 pixels\nHeight                                   : 720 pixels\nDisplay aspect ratio                     : 4:3\nFrame rate mode                          : Constant\nFrame rate                               : 23.976 fps\nColor space                              : YUV\nChroma subsampling                       : 4:2:0\nBit depth                                : 8 bits\nScan type                                : Progressive\nBits/(Pixel*Frame)                       : 0.100\nStream size                              : 974 MiB (84%)\nWriting library                          : x264 core 125 r2208 d9d2288\nEncoding settings                        : rc=2pass\nColor primaries                          : Generic film\n\nAudio\nID                                       : 2\nFormat                                   : AC-3\nFormat/Info                              : Audio Coding 3\nMode extension                           : CM (complete main)\nCodec ID                                 : ac-3\nDuration                                 : 1h 20mn\nBit rate mode                            : Constant\nBit rate                                 : 320 Kbps\nChannel(s)                               : 2 channels\nChannel positions                        : Front: L R\nSampling rate                            : 48.0 KHz\nBit depth                                : 16 bits\nCompression mode                         : Lossy\nStream size                              : 185 MiB (16%)\n\nAudio language                           : English\n\nIMDB link:                                &lt;a href=&quot; http://www.imdb.com/title/tt0040746/&quot; rel=&quot;nofollow&quot; target=&quot;_NEW&quot;&gt; http://www.imdb.com/title/tt0040746/&lt;/a&gt;\n\nSubtitles included                       : Romanian\n\nPlease seed at least 1,5:1. This way this torrent has a chance to survive !\n\nThanks. Enjoy!","torrent":{"xt":"urn:btih:97088eaa1884dd8e2c416a706732e35efd301b41","amp;dn":"Rope+%5B1948%5D+720p+BRRip+H264+AC3+-+CODY","amp;tr":["udp%3A%2F%2Ftracker.openbittorrent.com%3A80","udp%3A%2F%2Fopen.demonii.com%3A1337","udp%3A%2F%2Ftracker.coppersurfer.tk%3A6969","udp%3A%2F%2Fexodus.desync.com%3A6969"],"infoHash":"97088eaa1884dd8e2c416a706732e35efd301b41","infoHashBuffer":{"type":"Buffer","data":[151,8,142,170,24,132,221,142,44,65,106,112,103,50,227,94,253,48,27,65]},"announce":[],"urlList":[]}}